<svg width="577" height="574" viewBox="0 0 577 574" fill="none" xmlns="http://www.w3.org/2000/svg">
<path d="M461.743 324.996V382.349H538.213V324.996H461.743ZM519.096 363.231H480.861V344.114H519.096V363.231Z" fill="white"/>
<path d="M136.747 516.171V497.053H117.63V477.936H98.5121V497.053H79.3947V477.936H60.2772V497.053H41.1598V477.936H22.0424V497.053H2.92493V516.171H22.0424V535.288H2.92493V554.406H22.0424V573.523H41.1598V554.406H60.2772V573.523H79.3947V554.406H98.5121V573.523H117.63V554.406H136.747V535.288H117.63V516.171H136.747ZM60.2772 535.288H41.1598V516.171H60.2772V535.288ZM98.5121 535.288H79.3947V516.171H98.5121V535.288Z" fill="white"/>
<path d="M576.448 516.171V497.053H557.331V477.936H538.213V497.053H519.096V477.936H499.978V497.053H480.861V477.936H461.743V497.053H442.626V477.936H423.509V497.053H404.391V477.936H385.274V497.053H366.156V477.936H347.039V497.053H327.921V516.171H347.039V535.288H327.921V554.406H347.039V573.523H366.156V554.406H385.274V573.523H404.391V554.406H423.509V573.523H442.626V554.406H461.743V573.523H480.861V554.406H499.978V573.523H519.096V554.406H538.213V573.523H557.331V554.406H576.448V535.288H557.331V516.171H576.448ZM385.274 535.288H366.156V516.171H385.274V535.288ZM423.509 535.288H404.391V516.171H423.509V535.288ZM461.743 535.288H442.626V516.171H461.743V535.288ZM499.978 535.288H480.861V516.171H499.978V535.288ZM538.213 535.288H519.096V516.171H538.213V535.288Z" fill="white"/>
<path d="M174.982 143.381V229.409H289.687V143.381H174.982ZM249.798 162.498L232.334 174.724L214.861 162.498H249.798ZM194.099 171.302L215.664 186.395L194.099 201.488V171.302ZM214.861 210.292L232.334 198.066L249.808 210.292H214.861ZM270.569 201.498L249.005 186.395L270.569 171.302V201.498Z" fill="white"/>
<path d="M576.448 133.822V57.3523C576.448 25.6771 550.771 0 519.096 0C487.42 0 461.743 25.6771 461.743 57.3523V133.822C461.772 161.786 481.964 185.653 509.537 190.314V269.996L451.315 253.354L464.697 239.972L362.706 97.2599L232.334 47.1149L101.963 97.2599L0 240L22.0424 262.052V439.701H576.448V289.113L528.654 275.454V190.314C556.228 185.653 576.419 161.786 576.448 133.822ZM173.605 344.114L146.306 393.255V294.972L173.605 344.114ZM152.997 267.644H216.084L184.541 324.432L152.997 267.644ZM152.997 420.584L184.541 363.795L216.084 420.584H152.997ZM222.775 393.255L195.476 344.114L222.775 294.972V393.255ZM269.193 344.114L241.893 393.255V294.972L269.193 344.114ZM248.584 267.644H311.672L280.128 324.432L248.584 267.644ZM248.584 420.584L280.128 363.795L311.672 420.584H248.584ZM318.363 393.255L291.063 344.114L318.363 294.972V393.255ZM423.509 420.584H337.48V248.527H127.188V420.584H41.1598V281.17L42.3738 282.384L142.903 141.651L232.334 105.882L321.766 141.651L422.295 282.384L423.509 281.17V420.584ZM430.286 247.341L423.509 245.43V251.222L334.077 126.003L232.334 85.2924L130.591 125.993L39.9459 252.905L24.9674 237.936L114.179 113.032L232.334 67.5897L350.489 113.032L439.701 237.926L430.286 247.341ZM557.331 303.527V420.584H442.626V270.76L557.331 303.527ZM509.537 114.705V170.7C492.708 166.354 480.927 151.203 480.861 133.822V57.3523C480.861 36.2359 497.979 19.1174 519.096 19.1174C540.212 19.1174 557.331 36.2359 557.331 57.3523V133.822C557.265 151.203 545.485 166.354 528.654 170.7V114.705H509.537Z" fill="white"/>
</svg>
