<svg width="698" height="477" viewBox="0 0 698 477" fill="none" xmlns="http://www.w3.org/2000/svg">
<path d="M508.267 386.286C517.889 418.854 531.953 463.265 543.796 476.589H574.884C574.884 476.589 566.742 426.256 561.561 377.404C543.796 381.105 525.291 384.065 508.267 386.286Z" fill="#FFFFFF"/>
<path d="M216.633 375.183C216.633 375.923 215.892 375.923 215.892 376.664C225.515 412.933 242.539 454.383 275.108 476.589H300.274C300.274 476.589 292.872 429.217 292.872 389.247C260.304 384.806 234.397 380.365 216.633 375.183Z" fill="#FFFFFF"/>
<path d="M614.854 181.994C614.854 181.994 714.78 177.553 688.873 62.0835C658.526 116.857 574.144 81.3284 550.458 167.19C550.458 167.19 539.355 122.779 567.482 90.9508C506.787 -23.7784 199.609 -43.7634 106.345 111.676C106.345 111.676 98.2029 105.755 89.3207 96.8723C112.267 86.5097 129.291 60.6031 125.59 39.1376C121.149 16.1918 92.2814 1.38803 68.5954 11.7507C41.9486 23.5937 38.9879 47.2797 44.9094 72.4461C35.2869 68.005 25.6645 59.8629 15.3019 47.2797C8.64016 39.8778 -7.64398 48.7601 4.19903 66.5246C13.8215 79.848 33.0664 95.392 55.272 99.8331C68.5954 129.441 87.8403 153.867 87.8403 153.867C85.6197 197.538 87.8403 407.011 141.874 475.849H172.222C172.222 475.849 178.143 398.869 210.712 358.159C238.099 367.781 312.117 381.105 406.121 378.884C418.705 415.894 439.43 458.824 457.194 475.109H486.062C486.062 475.109 482.361 419.594 481.621 373.703C540.095 367.781 603.752 355.198 665.927 332.992C692.574 323.37 695.535 296.723 697.015 259.714C608.193 251.572 660.006 200.499 614.854 181.994ZM72.2964 75.4069C65.6347 62.8237 63.4141 49.5003 77.4777 39.8778C92.2814 29.5152 109.306 45.7993 94.502 60.6031C87.8403 67.2648 80.4384 72.4461 72.2964 75.4069ZM602.271 265.635C593.389 265.635 585.987 258.233 585.987 249.351C585.987 240.469 593.389 233.067 602.271 233.067C611.153 233.067 618.555 240.469 618.555 249.351C618.555 258.974 611.153 265.635 602.271 265.635Z" fill="#FFFFFF"/>
</svg>
