<svg width="876" height="827" viewBox="0 0 876 827" fill="none" xmlns="http://www.w3.org/2000/svg">
<path d="M484.749 660.445L506.766 655.206L492.614 640.295C492.322 622.663 474.393 608.433 452.298 608.433C420.499 608.433 399.68 651.114 399.68 651.114C396.565 652.154 393.451 653.32 390.346 654.633C345.125 673.665 318.932 713.916 331.858 744.525C339.177 761.875 357.496 772.402 380.233 774.813L384.749 775.201L395.397 816.745L385.129 827H446.731L436.462 816.745H408.226L401.821 791.57L427.722 769.039H427.712C430.856 767.989 434 766.813 437.134 765.491C482.355 746.459 508.547 706.208 495.621 675.599C493.169 669.747 489.45 664.683 484.749 660.445ZM428.909 731.772C423.575 734.639 417.755 736.019 411.973 736.019C401.675 736.019 391.533 731.636 384.564 723.442L389.781 719.019C398.58 729.371 413.667 732.199 425.668 725.755C435.937 720.224 441.874 709.163 440.774 697.566L440.755 697.246L444.239 697.236L447.587 696.925C448.94 711.262 441.601 724.938 428.909 731.772ZM465.185 647.76C461.701 647.76 458.868 645.807 458.868 643.396C458.868 640.986 461.701 639.032 465.185 639.032C468.67 639.032 471.502 640.986 471.502 643.396C471.492 645.807 468.67 647.76 465.185 647.76ZM585.061 336.23H595.583C595.583 351.685 582.997 364.253 567.521 364.253H556.776C555.657 364.253 554.566 364.165 553.486 364.039V364.253L541.835 398.779C527.673 440.741 529.542 486.445 547.081 527.114C563.716 565.684 593.042 597.42 630.204 617.074L719.313 664.188L706.883 714.586H674.744L660.708 728.603H737.884L723.849 714.586H723.878L735.889 665.539L820.082 598.975V567.443L833.271 551.998C860.855 519.727 876 478.698 876 436.279C876 401.627 865.595 367.762 846.138 339.078L837.359 326.13L736.142 441.907L689.441 432.576C672.846 429.261 659.375 417.179 654.284 401.063L631.304 328.201C626.058 311.56 612.421 299.322 595.933 295.483L596.459 294.2L598.795 288.873C600.586 284.771 597.588 280.183 593.101 280.183H572.32C560.893 280.183 550.566 286.987 546.079 297.475L539.489 312.862L531.226 316.527C523.429 319.987 518.407 327.715 518.407 336.23H528.929H539.451V336.453C539.451 345.989 547.218 353.755 556.776 353.755H567.521C577.196 353.755 585.061 345.891 585.061 336.23ZM570.101 320.133C570.101 323.516 567.356 326.267 563.959 326.267C560.572 326.267 557.817 323.525 557.817 320.133C557.817 316.741 560.562 314 563.959 314C567.356 314 570.101 316.751 570.101 320.133ZM613.132 441.402H623.654V446.33C623.654 467.034 629.776 487.048 641.359 504.223C660.669 532.839 692.828 549.927 727.392 549.927H772.048L741.252 504.388H753.954L791.855 560.444H727.392C689.324 560.444 653.905 541.626 632.637 510.104C619.877 491.188 613.132 469.143 613.132 446.34V441.402ZM486.647 129.103L470.85 110.178H491.747V106.329C491.747 101.187 489.217 96.3461 484.973 93.3815L482.511 91.6416L482.462 59.8372C482.442 47.5121 475.318 36.3048 464.163 31.017L398.395 0V20.0624C398.395 37.7142 407.515 53.9565 422.242 63.2684L400.712 84.6042C374.665 110.363 353.953 141.01 339.771 174.788L310.036 245.599C333.999 234.46 362.508 239.922 380.603 259.615C402.824 283.751 402.016 320.794 378.773 343.938L269.886 452.337L264.99 447.428C233.814 416.314 230.476 367.49 255.782 332.555H273.808L271.91 334.665C246.974 362.552 246.652 404.232 270.149 432.469L368.942 334.091C386.871 316.235 387.503 287.648 370.353 268.995C355.695 253.084 332.169 249.186 313.18 259.547C309.286 261.657 265.817 284.771 265.817 284.771L202.307 208.283C180.592 182.126 148.609 166.078 114.6 165.797C51.3823 165.281 0 216.293 0 279.279V407.449H146.389L269.097 499.344L287.63 573.469L269.068 592.006H371.132L352.571 573.469H315.457L296.896 499.344L426.816 369.599C462.45 334.014 482.462 285.743 482.462 235.432C482.462 226.1 481.167 216.827 478.637 207.846L466.295 165.777H469.448C488.458 165.767 498.804 143.674 486.647 129.103ZM111.34 253.939C98.3456 255.096 88.1451 266.011 88.1451 279.279V332.604H74.2264V279.279C74.2264 258.342 90.6757 241.225 111.34 240.039V253.939ZM111.34 209.848C74.0415 211.073 44.0725 241.721 44.0725 279.27V332.594H30.1539V279.27C30.1539 234.071 66.3619 197.173 111.34 195.948V209.848ZM463.92 98.5915C460.065 98.5915 456.961 95.4907 456.961 91.6416C456.961 87.7924 460.065 84.6917 463.92 84.6917C467.774 84.6917 470.879 87.7924 470.879 91.6416C470.879 95.4907 467.774 98.5915 463.92 98.5915Z" fill="#FFFFFF"/>
</svg>
